<mxfile host="Electron" agent="Mozilla/5.0 (X11; Linux x86_64) AppleWebKit/537.36 (KHTML, like Gecko) draw.io/26.1.1 Chrome/132.0.6834.210 Electron/34.3.3 Safari/537.36" version="26.1.1">
  <diagram name="Page-1" id="nqk64QUOsp7CVvte4fSe">
    <mxGraphModel dx="880" dy="526" grid="1" gridSize="10" guides="1" tooltips="1" connect="1" arrows="1" fold="1" page="1" pageScale="1" pageWidth="850" pageHeight="1100" math="0" shadow="0">
      <root>
        <mxCell id="0" />
        <mxCell id="1" parent="0" />
        <mxCell id="NCt1GerUNoRmOlXC1BGD-2" value="" style="sketch=0;pointerEvents=1;shadow=0;dashed=0;html=1;strokeColor=none;fillColor=#434445;aspect=fixed;labelPosition=center;verticalLabelPosition=bottom;verticalAlign=top;align=center;outlineConnect=0;shape=mxgraph.vvd.laptop;" vertex="1" parent="1">
          <mxGeometry x="126" y="260" width="597.22" height="430" as="geometry" />
        </mxCell>
        <mxCell id="NCt1GerUNoRmOlXC1BGD-3" value="Game&lt;div&gt;1 vs 1&lt;/div&gt;" style="rounded=1;whiteSpace=wrap;html=1;" vertex="1" parent="1">
          <mxGeometry x="220" y="410" width="120" height="60" as="geometry" />
        </mxCell>
        <mxCell id="NCt1GerUNoRmOlXC1BGD-4" value="Tournament" style="rounded=1;whiteSpace=wrap;html=1;" vertex="1" parent="1">
          <mxGeometry x="364.61" y="410" width="120" height="60" as="geometry" />
        </mxCell>
        <mxCell id="NCt1GerUNoRmOlXC1BGD-16" style="edgeStyle=orthogonalEdgeStyle;rounded=0;orthogonalLoop=1;jettySize=auto;html=1;entryX=0.5;entryY=0;entryDx=0;entryDy=0;" edge="1" parent="1" source="NCt1GerUNoRmOlXC1BGD-5" target="NCt1GerUNoRmOlXC1BGD-14">
          <mxGeometry relative="1" as="geometry" />
        </mxCell>
        <mxCell id="NCt1GerUNoRmOlXC1BGD-17" style="edgeStyle=orthogonalEdgeStyle;rounded=0;orthogonalLoop=1;jettySize=auto;html=1;" edge="1" parent="1" source="NCt1GerUNoRmOlXC1BGD-5" target="NCt1GerUNoRmOlXC1BGD-15">
          <mxGeometry relative="1" as="geometry" />
        </mxCell>
        <mxCell id="NCt1GerUNoRmOlXC1BGD-5" value="Account&lt;div&gt;Management&lt;/div&gt;" style="rounded=1;whiteSpace=wrap;html=1;" vertex="1" parent="1">
          <mxGeometry x="510" y="410" width="120" height="60" as="geometry" />
        </mxCell>
        <mxCell id="NCt1GerUNoRmOlXC1BGD-6" value="" style="sketch=0;pointerEvents=1;shadow=0;dashed=0;html=1;strokeColor=none;fillColor=#434445;aspect=fixed;labelPosition=center;verticalLabelPosition=bottom;verticalAlign=top;align=center;outlineConnect=0;shape=mxgraph.vvd.laptop;" vertex="1" parent="1">
          <mxGeometry x="126" y="730" width="597.22" height="430" as="geometry" />
        </mxCell>
        <mxCell id="NCt1GerUNoRmOlXC1BGD-7" value="" style="rounded=1;whiteSpace=wrap;html=1;" vertex="1" parent="1">
          <mxGeometry x="310" y="790" width="120" height="20" as="geometry" />
        </mxCell>
        <mxCell id="NCt1GerUNoRmOlXC1BGD-8" value="" style="rounded=1;whiteSpace=wrap;html=1;" vertex="1" parent="1">
          <mxGeometry x="310" y="820" width="120" height="20" as="geometry" />
        </mxCell>
        <mxCell id="NCt1GerUNoRmOlXC1BGD-9" value="" style="rounded=1;whiteSpace=wrap;html=1;" vertex="1" parent="1">
          <mxGeometry x="310" y="850" width="120" height="20" as="geometry" />
        </mxCell>
        <mxCell id="NCt1GerUNoRmOlXC1BGD-11" value="" style="html=1;verticalLabelPosition=bottom;align=center;labelBackgroundColor=#ffffff;verticalAlign=top;strokeWidth=2;strokeColor=#0080F0;shadow=0;dashed=0;shape=mxgraph.ios7.icons.user;aspect=fixed;" vertex="1" parent="1">
          <mxGeometry x="520" y="780" width="100" height="100" as="geometry" />
        </mxCell>
        <mxCell id="NCt1GerUNoRmOlXC1BGD-12" value="Delete Account" style="rounded=1;whiteSpace=wrap;html=1;fillColor=#f8cecc;strokeColor=#b85450;" vertex="1" parent="1">
          <mxGeometry x="310" y="970" width="120" height="20" as="geometry" />
        </mxCell>
        <mxCell id="NCt1GerUNoRmOlXC1BGD-13" value="Name" style="text;html=1;align=center;verticalAlign=middle;whiteSpace=wrap;rounded=0;" vertex="1" parent="1">
          <mxGeometry x="230" y="785" width="60" height="30" as="geometry" />
        </mxCell>
        <mxCell id="NCt1GerUNoRmOlXC1BGD-14" value="Sign In" style="rounded=1;whiteSpace=wrap;html=1;" vertex="1" parent="1">
          <mxGeometry x="490" y="510" width="70" height="60" as="geometry" />
        </mxCell>
        <mxCell id="NCt1GerUNoRmOlXC1BGD-15" value="Sign Up" style="rounded=1;whiteSpace=wrap;html=1;" vertex="1" parent="1">
          <mxGeometry x="580" y="510" width="70" height="60" as="geometry" />
        </mxCell>
        <mxCell id="NCt1GerUNoRmOlXC1BGD-19" value="" style="sketch=0;pointerEvents=1;shadow=0;dashed=0;html=1;strokeColor=none;fillColor=#434445;aspect=fixed;labelPosition=center;verticalLabelPosition=bottom;verticalAlign=top;align=center;outlineConnect=0;shape=mxgraph.vvd.laptop;movable=0;resizable=0;rotatable=0;deletable=0;editable=0;locked=1;connectable=0;" vertex="1" parent="1">
          <mxGeometry x="126" y="1196" width="597.22" height="430" as="geometry" />
        </mxCell>
        <mxCell id="NCt1GerUNoRmOlXC1BGD-28" style="edgeStyle=orthogonalEdgeStyle;rounded=0;orthogonalLoop=1;jettySize=auto;html=1;" edge="1" parent="1" source="NCt1GerUNoRmOlXC1BGD-20">
          <mxGeometry relative="1" as="geometry">
            <mxPoint x="320" y="1400" as="targetPoint" />
          </mxGeometry>
        </mxCell>
        <mxCell id="NCt1GerUNoRmOlXC1BGD-20" value="" style="html=1;verticalLabelPosition=bottom;align=center;labelBackgroundColor=#ffffff;verticalAlign=top;strokeWidth=2;strokeColor=#0080F0;shadow=0;dashed=0;shape=mxgraph.ios7.icons.user;" vertex="1" parent="1">
          <mxGeometry x="259" y="1450" width="30" height="30" as="geometry" />
        </mxCell>
        <mxCell id="NCt1GerUNoRmOlXC1BGD-29" style="edgeStyle=orthogonalEdgeStyle;rounded=0;orthogonalLoop=1;jettySize=auto;html=1;" edge="1" parent="1" source="NCt1GerUNoRmOlXC1BGD-21">
          <mxGeometry relative="1" as="geometry">
            <mxPoint x="320" y="1400" as="targetPoint" />
          </mxGeometry>
        </mxCell>
        <mxCell id="NCt1GerUNoRmOlXC1BGD-30" style="edgeStyle=orthogonalEdgeStyle;rounded=0;orthogonalLoop=1;jettySize=auto;html=1;" edge="1" parent="1" source="NCt1GerUNoRmOlXC1BGD-21">
          <mxGeometry relative="1" as="geometry">
            <mxPoint x="420" y="1400" as="targetPoint" />
          </mxGeometry>
        </mxCell>
        <mxCell id="NCt1GerUNoRmOlXC1BGD-21" value="" style="html=1;verticalLabelPosition=bottom;align=center;labelBackgroundColor=#ffffff;verticalAlign=top;strokeWidth=2;strokeColor=#0080F0;shadow=0;dashed=0;shape=mxgraph.ios7.icons.user;" vertex="1" parent="1">
          <mxGeometry x="359" y="1450" width="30" height="30" as="geometry" />
        </mxCell>
        <mxCell id="NCt1GerUNoRmOlXC1BGD-31" style="edgeStyle=orthogonalEdgeStyle;rounded=0;orthogonalLoop=1;jettySize=auto;html=1;" edge="1" parent="1" source="NCt1GerUNoRmOlXC1BGD-22">
          <mxGeometry relative="1" as="geometry">
            <mxPoint x="420" y="1400" as="targetPoint" />
          </mxGeometry>
        </mxCell>
        <mxCell id="NCt1GerUNoRmOlXC1BGD-32" style="edgeStyle=orthogonalEdgeStyle;rounded=0;orthogonalLoop=1;jettySize=auto;html=1;" edge="1" parent="1" source="NCt1GerUNoRmOlXC1BGD-22">
          <mxGeometry relative="1" as="geometry">
            <mxPoint x="520" y="1400" as="targetPoint" />
          </mxGeometry>
        </mxCell>
        <mxCell id="NCt1GerUNoRmOlXC1BGD-22" value="" style="html=1;verticalLabelPosition=bottom;align=center;labelBackgroundColor=#ffffff;verticalAlign=top;strokeWidth=2;strokeColor=#0080F0;shadow=0;dashed=0;shape=mxgraph.ios7.icons.user;" vertex="1" parent="1">
          <mxGeometry x="459" y="1450" width="30" height="30" as="geometry" />
        </mxCell>
        <mxCell id="NCt1GerUNoRmOlXC1BGD-33" style="edgeStyle=orthogonalEdgeStyle;rounded=0;orthogonalLoop=1;jettySize=auto;html=1;" edge="1" parent="1" source="NCt1GerUNoRmOlXC1BGD-23">
          <mxGeometry relative="1" as="geometry">
            <mxPoint x="520" y="1400" as="targetPoint" />
          </mxGeometry>
        </mxCell>
        <mxCell id="NCt1GerUNoRmOlXC1BGD-23" value="" style="html=1;verticalLabelPosition=bottom;align=center;labelBackgroundColor=#ffffff;verticalAlign=top;strokeWidth=2;strokeColor=#0080F0;shadow=0;dashed=0;shape=mxgraph.ios7.icons.user;" vertex="1" parent="1">
          <mxGeometry x="559" y="1450" width="30" height="30" as="geometry" />
        </mxCell>
        <mxCell id="NCt1GerUNoRmOlXC1BGD-24" value="Sign In" style="rounded=1;whiteSpace=wrap;html=1;" vertex="1" parent="1">
          <mxGeometry x="239" y="1500" width="70" height="20" as="geometry" />
        </mxCell>
        <mxCell id="NCt1GerUNoRmOlXC1BGD-25" value="Sign In" style="rounded=1;whiteSpace=wrap;html=1;" vertex="1" parent="1">
          <mxGeometry x="335" y="1500" width="70" height="20" as="geometry" />
        </mxCell>
        <mxCell id="NCt1GerUNoRmOlXC1BGD-26" value="Sign In" style="rounded=1;whiteSpace=wrap;html=1;" vertex="1" parent="1">
          <mxGeometry x="440" y="1500" width="70" height="20" as="geometry" />
        </mxCell>
        <mxCell id="NCt1GerUNoRmOlXC1BGD-27" value="Sign In" style="rounded=1;whiteSpace=wrap;html=1;" vertex="1" parent="1">
          <mxGeometry x="539" y="1500" width="70" height="20" as="geometry" />
        </mxCell>
        <mxCell id="NCt1GerUNoRmOlXC1BGD-44" style="edgeStyle=orthogonalEdgeStyle;rounded=0;orthogonalLoop=1;jettySize=auto;html=1;exitX=1;exitY=0.5;exitDx=0;exitDy=0;entryX=0.5;entryY=1;entryDx=0;entryDy=0;" edge="1" parent="1" source="NCt1GerUNoRmOlXC1BGD-34" target="NCt1GerUNoRmOlXC1BGD-37">
          <mxGeometry relative="1" as="geometry" />
        </mxCell>
        <mxCell id="NCt1GerUNoRmOlXC1BGD-34" value="" style="ellipse;whiteSpace=wrap;html=1;aspect=fixed;" vertex="1" parent="1">
          <mxGeometry x="295" y="1350" width="50" height="50" as="geometry" />
        </mxCell>
        <mxCell id="NCt1GerUNoRmOlXC1BGD-39" style="edgeStyle=orthogonalEdgeStyle;rounded=0;orthogonalLoop=1;jettySize=auto;html=1;" edge="1" parent="1" source="NCt1GerUNoRmOlXC1BGD-35" target="NCt1GerUNoRmOlXC1BGD-38">
          <mxGeometry relative="1" as="geometry" />
        </mxCell>
        <mxCell id="NCt1GerUNoRmOlXC1BGD-43" style="edgeStyle=orthogonalEdgeStyle;rounded=0;orthogonalLoop=1;jettySize=auto;html=1;exitX=0;exitY=0.5;exitDx=0;exitDy=0;" edge="1" parent="1" source="NCt1GerUNoRmOlXC1BGD-35" target="NCt1GerUNoRmOlXC1BGD-37">
          <mxGeometry relative="1" as="geometry" />
        </mxCell>
        <mxCell id="NCt1GerUNoRmOlXC1BGD-35" value="" style="ellipse;whiteSpace=wrap;html=1;aspect=fixed;" vertex="1" parent="1">
          <mxGeometry x="395.61" y="1350" width="50" height="50" as="geometry" />
        </mxCell>
        <mxCell id="NCt1GerUNoRmOlXC1BGD-42" style="edgeStyle=orthogonalEdgeStyle;rounded=0;orthogonalLoop=1;jettySize=auto;html=1;exitX=0;exitY=0.5;exitDx=0;exitDy=0;entryX=0.5;entryY=1;entryDx=0;entryDy=0;" edge="1" parent="1" source="NCt1GerUNoRmOlXC1BGD-36" target="NCt1GerUNoRmOlXC1BGD-38">
          <mxGeometry relative="1" as="geometry" />
        </mxCell>
        <mxCell id="NCt1GerUNoRmOlXC1BGD-36" value="" style="ellipse;whiteSpace=wrap;html=1;aspect=fixed;" vertex="1" parent="1">
          <mxGeometry x="496" y="1350" width="50" height="50" as="geometry" />
        </mxCell>
        <mxCell id="NCt1GerUNoRmOlXC1BGD-46" style="edgeStyle=orthogonalEdgeStyle;rounded=0;orthogonalLoop=1;jettySize=auto;html=1;" edge="1" parent="1" source="NCt1GerUNoRmOlXC1BGD-37" target="NCt1GerUNoRmOlXC1BGD-45">
          <mxGeometry relative="1" as="geometry" />
        </mxCell>
        <mxCell id="NCt1GerUNoRmOlXC1BGD-37" value="" style="ellipse;whiteSpace=wrap;html=1;aspect=fixed;" vertex="1" parent="1">
          <mxGeometry x="345" y="1290" width="50" height="50" as="geometry" />
        </mxCell>
        <mxCell id="NCt1GerUNoRmOlXC1BGD-48" style="edgeStyle=orthogonalEdgeStyle;rounded=0;orthogonalLoop=1;jettySize=auto;html=1;exitX=0;exitY=0.5;exitDx=0;exitDy=0;" edge="1" parent="1" source="NCt1GerUNoRmOlXC1BGD-38">
          <mxGeometry relative="1" as="geometry">
            <mxPoint x="420" y="1270" as="targetPoint" />
          </mxGeometry>
        </mxCell>
        <mxCell id="NCt1GerUNoRmOlXC1BGD-38" value="" style="ellipse;whiteSpace=wrap;html=1;aspect=fixed;" vertex="1" parent="1">
          <mxGeometry x="449" y="1290" width="50" height="50" as="geometry" />
        </mxCell>
        <mxCell id="NCt1GerUNoRmOlXC1BGD-45" value="" style="ellipse;whiteSpace=wrap;html=1;aspect=fixed;" vertex="1" parent="1">
          <mxGeometry x="395.61" y="1220" width="50" height="50" as="geometry" />
        </mxCell>
        <mxCell id="NCt1GerUNoRmOlXC1BGD-50" value="" style="sketch=0;pointerEvents=1;shadow=0;dashed=0;html=1;strokeColor=none;fillColor=#434445;aspect=fixed;labelPosition=center;verticalLabelPosition=bottom;verticalAlign=top;align=center;outlineConnect=0;shape=mxgraph.vvd.laptop;" vertex="1" parent="1">
          <mxGeometry x="122" y="1670" width="597.22" height="430" as="geometry" />
        </mxCell>
        <mxCell id="NCt1GerUNoRmOlXC1BGD-51" value="" style="html=1;verticalLabelPosition=bottom;align=center;labelBackgroundColor=#ffffff;verticalAlign=top;strokeWidth=2;strokeColor=#0080F0;shadow=0;dashed=0;shape=mxgraph.ios7.icons.user;" vertex="1" parent="1">
          <mxGeometry x="357.61" y="1820" width="30" height="30" as="geometry" />
        </mxCell>
        <mxCell id="NCt1GerUNoRmOlXC1BGD-52" value="" style="html=1;verticalLabelPosition=bottom;align=center;labelBackgroundColor=#ffffff;verticalAlign=top;strokeWidth=2;strokeColor=#0080F0;shadow=0;dashed=0;shape=mxgraph.ios7.icons.user;" vertex="1" parent="1">
          <mxGeometry x="457.61" y="1820" width="30" height="30" as="geometry" />
        </mxCell>
        <mxCell id="NCt1GerUNoRmOlXC1BGD-53" value="Sign In" style="rounded=1;whiteSpace=wrap;html=1;" vertex="1" parent="1">
          <mxGeometry x="337.61" y="1870" width="70" height="20" as="geometry" />
        </mxCell>
        <mxCell id="NCt1GerUNoRmOlXC1BGD-54" value="Sign In" style="rounded=1;whiteSpace=wrap;html=1;" vertex="1" parent="1">
          <mxGeometry x="433.61" y="1870" width="70" height="20" as="geometry" />
        </mxCell>
        <mxCell id="NCt1GerUNoRmOlXC1BGD-55" value="Won # Times&lt;div&gt;Lose # Times&lt;/div&gt;" style="text;html=1;align=center;verticalAlign=middle;whiteSpace=wrap;rounded=0;fontStyle=1" vertex="1" parent="1">
          <mxGeometry x="524" y="920" width="100" height="30" as="geometry" />
        </mxCell>
      </root>
    </mxGraphModel>
  </diagram>
</mxfile>
